<?xml version="1.0" standalone="no"?>
<!DOCTYPE svg PUBLIC "-//W3C//DTD SVG 20010904//EN"
 "http://www.w3.org/TR/2001/REC-SVG-20010904/DTD/svg10.dtd">
<svg version="1.0" xmlns="http://www.w3.org/2000/svg"
 width="512.000000pt" height="512.000000pt" viewBox="0 0 512.000000 512.000000"
 preserveAspectRatio="xMidYMid meet">

<g transform="translate(0.000000,512.000000) scale(0.100000,-0.100000)"
fill="#000000" stroke="none">
<path d="M3886 4934 c-260 -58 -481 -232 -596 -469 -63 -129 -82 -202 -89
-353 l-7 -122 -176 -177 -177 -177 -143 140 c-123 121 -151 143 -196 158 -194
65 -384 -44 -426 -244 -5 -24 -8 -25 -88 -25 -70 -1 -91 -5 -135 -28 -64 -33
-115 -85 -145 -146 -30 -60 -37 -189 -14 -244 12 -29 12 -37 2 -37 -7 0 -41
-14 -75 -31 -113 -56 -178 -173 -169 -300 l4 -58 -44 -11 c-70 -17 -116 -45
-165 -100 -55 -61 -79 -128 -79 -216 1 -91 34 -157 127 -253 l75 -77 -128
-126 -127 -125 -125 -6 c-139 -6 -240 -32 -360 -92 -220 -111 -385 -318 -452
-569 -30 -113 -30 -316 1 -431 43 -161 125 -299 247 -416 84 -80 143 -121 239
-165 120 -55 229 -78 375 -77 154 1 244 23 385 92 299 148 485 446 485 779 l0
85 127 129 127 128 453 -452 452 -452 -40 -43 c-55 -60 -52 -80 24 -165 91
-102 136 -120 182 -73 36 35 33 76 -10 124 -19 21 -35 42 -35 47 0 5 278 287
617 626 l618 618 210 -210 c188 -187 215 -210 243 -210 38 0 82 38 82 70 0 41
-31 78 -263 307 -266 265 -263 263 -338 196 l-42 -38 -29 35 c-37 43 -112 199
-127 262 -6 25 -27 185 -46 355 -21 186 -43 336 -56 378 -28 93 -79 189 -139
260 -28 33 -50 62 -50 65 0 3 27 32 60 65 l61 60 122 6 c142 7 220 26 336 80
192 89 335 235 426 432 59 127 70 184 70 362 0 140 -3 169 -23 235 -13 41 -30
85 -38 98 -22 34 -59 45 -97 28 -18 -8 -141 -124 -275 -258 l-243 -244 -147
21 -147 20 -20 147 -21 147 244 243 c134 134 250 257 258 275 27 63 -3 96
-121 133 -93 30 -325 37 -429 14z m302 -151 c21 -5 2 -28 -197 -227 -174 -175
-221 -228 -221 -248 0 -39 49 -378 60 -420 6 -21 20 -43 32 -49 21 -11 387
-68 442 -69 26 0 62 32 252 221 251 251 234 245 234 78 0 -196 -68 -357 -210
-500 -141 -141 -291 -204 -515 -212 -126 -5 -158 -19 -246 -103 l-69 -67 -130
127 c-161 157 -205 181 -325 181 -86 0 -156 -24 -203 -68 l-23 -21 -57 57 -57
57 182 183 c121 121 188 196 199 222 11 26 18 78 21 150 7 213 71 364 213 505
142 143 298 208 495 209 55 1 110 -2 123 -6z m-1725 -1009 c35 -18 487 -462
487 -479 0 -6 -50 -60 -110 -120 l-110 -110 -230 230 c-280 280 -298 310 -249
412 36 74 136 105 212 67z m-398 -283 c26 -12 134 -113 299 -279 l259 -261
-12 -54 c-9 -40 -9 -66 -1 -102 13 -59 10 -69 -31 -90 -39 -21 -108 -21 -145
-1 -16 8 -154 140 -307 294 -238 238 -280 284 -287 318 -31 133 99 234 225
175z m1300 -167 c18 -8 129 -113 247 -232 300 -305 295 -294 348 -775 17 -152
40 -312 51 -354 24 -96 83 -219 144 -302 l47 -64 -508 -508 -509 -509 -452
452 -453 453 424 425 c233 234 429 435 436 448 26 52 -14 112 -75 112 -26 0
-104 -74 -643 -612 -337 -337 -625 -633 -639 -657 -24 -39 -27 -58 -33 -175
-4 -73 -15 -157 -25 -191 -59 -204 -226 -390 -423 -470 -34 -14 -103 -32 -154
-41 -308 -53 -618 106 -761 391 -52 104 -72 191 -71 315 0 138 17 211 76 330
59 117 188 248 303 307 115 59 173 73 326 82 170 10 179 14 344 180 l119 121
161 -160 c129 -127 172 -164 220 -186 213 -98 454 65 443 299 -3 66 -2 68 22
73 94 20 179 80 225 158 46 79 52 158 19 272 -5 18 0 24 30 34 20 6 60 27 88
46 36 25 54 31 63 24 30 -25 131 -50 202 -50 109 0 159 20 295 119 25 19 76
16 99 -5 12 -11 19 -30 19 -55 0 -34 -9 -48 -74 -119 -141 -153 -190 -318
-151 -505 21 -101 74 -201 150 -283 87 -94 137 -104 181 -37 24 36 11 68 -56
140 -71 76 -105 140 -121 229 -24 131 17 247 132 370 81 86 101 128 100 207 0
132 -99 228 -234 229 -69 0 -112 -17 -178 -69 -64 -51 -106 -64 -185 -59 -106
7 -191 82 -165 147 14 33 415 433 456 455 39 20 98 20 140 0z m-1530 -283 c26
-12 136 -115 312 -292 234 -236 273 -280 283 -316 20 -76 -12 -148 -80 -183
-44 -22 -85 -25 -127 -10 -32 12 -577 551 -599 592 -18 34 -18 101 0 136 43
82 128 112 211 73z m-277 -395 c32 -18 565 -552 581 -583 18 -35 13 -114 -9
-150 -36 -60 -107 -90 -174 -72 -35 9 -84 53 -319 287 -153 152 -285 290 -293
306 -36 66 -10 159 56 203 39 27 116 31 158 9z"/>
<path d="M698 1373 c-156 -156 -188 -192 -188 -216 0 -16 27 -130 61 -255 44
-165 66 -233 82 -249 16 -15 86 -39 249 -82 124 -34 239 -61 255 -61 24 0 59
31 216 188 103 104 187 196 187 206 0 21 -105 414 -126 472 -9 25 -24 45 -39
52 -33 15 -468 132 -491 132 -10 0 -102 -84 -206 -187z m441 -38 l155 -42 48
-179 48 -179 -127 -127 c-70 -71 -132 -128 -138 -128 -5 0 -87 21 -182 46
l-171 47 -31 111 c-16 61 -38 141 -48 179 l-17 67 129 130 c114 114 132 129
155 123 14 -3 94 -25 179 -48z"/>
</g>
</svg>
